<?xml version="1.0" encoding="UTF-8"?>
<!DOCTYPE svg PUBLIC "-//W3C//DTD SVG 1.1//EN" "http://www.w3.org/Graphics/SVG/1.1/DTD/svg11.dtd">
<svg xmlns="http://www.w3.org/2000/svg" version="1.1" width="1323px" height="2418px" style="shape-rendering:geometricPrecision; text-rendering:geometricPrecision; image-rendering:optimizeQuality; fill-rule:evenodd; clip-rule:evenodd" xmlns:xlink="http://www.w3.org/1999/xlink">
<g><path style="opacity:0.999" fill="#fec445" d="M 613.5,-0.5 C 849.833,-0.5 1086.17,-0.5 1322.5,-0.5C 1322.5,16.5 1322.5,33.5 1322.5,50.5C 1319.37,839.333 1316.71,1628.33 1314.5,2417.5C 1082.83,2417.5 851.167,2417.5 619.5,2417.5C 452.914,2410.5 307.914,2351.66 184.5,2241C 67.7203,2130.92 6.05364,1995.42 -0.5,1834.5C -0.5,1417.17 -0.5,999.833 -0.5,582.5C 6.32242,420.042 68.9891,283.542 187.5,173C 308.819,65.6951 450.819,7.86182 613.5,-0.5 Z"/></g>
<g><path style="opacity:1" fill="#222153" d="M 870.5,667.5 C 899.267,665.467 917.767,678.134 926,705.5C 928.681,719.339 926.015,732.006 918,743.5C 789.619,895.093 661.119,1046.59 532.5,1198C 662.046,1357.21 791.212,1516.71 920,1676.5C 931.452,1699.9 927.952,1720.73 909.5,1739C 888.581,1753.18 867.914,1752.85 847.5,1738C 709,1567.5 570.5,1397 432,1226.5C 418.381,1204.54 419.715,1183.54 436,1163.5C 571.375,1004.46 706.375,845.127 841,685.5C 849.005,676.259 858.838,670.259 870.5,667.5 Z"/></g>
</svg>
