<?xml version="1.0" standalone="no"?>
<!DOCTYPE svg PUBLIC "-//W3C//DTD SVG 20010904//EN"
 "http://www.w3.org/TR/2001/REC-SVG-20010904/DTD/svg10.dtd">
<svg version="1.0" xmlns="http://www.w3.org/2000/svg"
 width="1323.000000pt" height="2418.000000pt" viewBox="0 0 1323.000000 2418.000000"
 preserveAspectRatio="xMidYMid meet">

<g transform="translate(0.000000,2418.000000) scale(0.100000,-0.100000)"
fill="#000000" stroke="none">
<path d="M8670 17486 c-73 -19 -140 -58 -197 -111 -64 -61 -4124 -4852 -4164
-4915 -90 -139 -102 -307 -33 -461 19 -42 573 -732 2107 -2625 1684 -2078
2092 -2576 2136 -2606 148 -104 337 -116 501 -33 235 119 325 431 191 660 -16
28 -896 1119 -1955 2425 -1662 2051 -1923 2377 -1911 2390 115 129 3836 4528
3856 4559 89 137 96 331 17 485 -27 52 -109 138 -169 177 -100 64 -261 88
-379 55z"/>
</g>
</svg>
