<?xml version="1.0" encoding="UTF-8"?>
<svg id="Calque_1" data-name="Calque 1" xmlns="http://www.w3.org/2000/svg" xmlns:xlink="http://www.w3.org/1999/xlink" viewBox="0 0 448.09 345.06">
  <defs>
    <style>
      .cls-1 {
        fill: none;
      }

      .cls-1, .cls-2 {
        stroke-width: 0px;
      }

      .cls-3 {
        clip-path: url(#clippath);
      }

      .cls-2 {
        fill: #141b6c;
      }
    </style>
    <clipPath id="clippath">
      <rect class="cls-1" x="172.65" y="23.44" width="252" height="252" transform="translate(-24.54 65.36) rotate(-12)"/>
    </clipPath>
  </defs>
  <g id="Composant_32_2" data-name="Composant 32 2">
    <g id="Groupe_42" data-name="Groupe 42">
      <path id="Tracé_9" data-name="Tracé 9" class="cls-2" d="M197.7,240.56l3.9,58.4,55-20.2,114.8-176.9-58.9-38.3-114.9,176.9.1.1Z"/>
      <g id="Groupe_41" data-name="Groupe 41">
        <g class="cls-3">
          <g id="Groupe_40" data-name="Groupe 40">
            <path id="Tracé_10" data-name="Tracé 10" class="cls-2" d="M360.6,10.96l39.3,25.5c5.4,3.5,7,10.8,3.5,16.2h0l-19.1,29.5-59-38.3,19.1-29.5c3.5-5.4,10.8-7,16.2-3.5h0"/>
          </g>
        </g>
      </g>
    </g>
    <path id="Ligne_14" data-name="Ligne 14" class="cls-2" d="M272.6,345.06H10.6c-5.9,0-10.6-4.8-10.6-10.6s4.8-10.6,10.6-10.6h262c5.9,0,10.6,4.8,10.6,10.6s-4.8,10.6-10.6,10.6Z"/>
  </g>
</svg>