<svg width="256" height="260" viewBox="0 0 256 260" fill="none" xmlns="http://www.w3.org/2000/svg">
<path d="M161.604 46.001V96.401M161.604 96.401H212.004M161.604 96.401L212.004 46.001M212.004 171.329V196.529C212.013 198.868 211.534 201.184 210.597 203.327C209.659 205.471 208.285 207.395 206.561 208.976C204.837 210.558 202.802 211.762 200.586 212.512C198.37 213.261 196.021 213.539 193.692 213.329C167.843 210.52 143.014 201.688 121.2 187.541C100.904 174.644 83.6964 157.437 70.7995 137.141C56.6034 115.227 47.7688 90.2772 45.0115 64.3128C44.8016 61.9899 45.0777 59.6488 45.8221 57.4385C46.5666 55.2281 47.7631 53.197 49.3356 51.4744C50.908 49.7519 52.8219 48.3756 54.9554 47.4332C57.0889 46.4908 59.3952 46.003 61.7275 46.0008H86.9275C91.0041 45.9607 94.9562 47.4043 98.0471 50.0625C101.138 52.7207 103.157 56.4122 103.728 60.4488C104.791 68.5134 106.764 76.4317 109.608 84.0528C110.738 87.0594 110.982 90.3269 110.312 93.4682C109.642 96.6095 108.086 99.493 105.828 101.777L95.1595 112.445C107.117 133.475 124.53 150.887 145.56 162.845L156.228 152.177C158.511 149.918 161.395 148.362 164.536 147.692C167.677 147.022 170.945 147.267 173.952 148.397C181.573 151.241 189.491 153.213 197.556 154.277C201.636 154.852 205.363 156.908 208.026 160.052C210.69 163.196 212.106 167.209 212.004 171.329Z" stroke="#1E1E1E" stroke-width="16.8" stroke-linecap="round" stroke-linejoin="round"/>
</svg>
