<?xml version="1.0" encoding="UTF-8"?>
<!DOCTYPE svg PUBLIC "-//W3C//DTD SVG 1.1//EN" "http://www.w3.org/Graphics/SVG/1.1/DTD/svg11.dtd">
<svg xmlns="http://www.w3.org/2000/svg" version="1.1" width="225px" height="225px" style="shape-rendering:geometricPrecision; text-rendering:geometricPrecision; image-rendering:optimizeQuality; fill-rule:evenodd; clip-rule:evenodd" xmlns:xlink="http://www.w3.org/1999/xlink">
<g><path style="opacity:1" fill="#fef8f6" d="M -0.5,-0.5 C 2.16667,-0.5 4.83333,-0.5 7.5,-0.5C 3.83333,1.16667 1.16667,3.83333 -0.5,7.5C -0.5,4.83333 -0.5,2.16667 -0.5,-0.5 Z"/></g>
<g><path style="opacity:1" fill="#e96202" d="M 7.5,-0.5 C 76.8333,-0.5 146.167,-0.5 215.5,-0.5C 219.742,0.741084 222.742,3.40775 224.5,7.5C 224.5,76.8333 224.5,146.167 224.5,215.5C 223.167,220.167 220.167,223.167 215.5,224.5C 146.167,224.5 76.8333,224.5 7.5,224.5C 3.40775,222.742 0.741084,219.742 -0.5,215.5C -0.5,146.167 -0.5,76.8333 -0.5,7.5C 1.16667,3.83333 3.83333,1.16667 7.5,-0.5 Z"/></g>
<g><path style="opacity:1" fill="#fef6f3" d="M 215.5,-0.5 C 218.5,-0.5 221.5,-0.5 224.5,-0.5C 224.5,2.16667 224.5,4.83333 224.5,7.5C 222.742,3.40775 219.742,0.741084 215.5,-0.5 Z"/></g>
<g><path style="opacity:1" fill="#fefdfd" d="M 117.5,10.5 C 124.841,10.3337 132.174,10.5003 139.5,11C 142.902,14.9676 145.402,19.4676 147,24.5C 147.667,52.5 147.667,80.5 147,108.5C 145.923,113.823 143.423,118.323 139.5,122C 132.144,122.831 124.811,122.665 117.5,121.5C 122.178,117.481 125.345,112.481 127,106.5C 128.109,92.8719 128.609,79.2052 128.5,65.5C 128.333,53.8333 128.167,42.1667 128,30.5C 127.181,25.8585 125.514,21.5252 123,17.5C 120.546,15.5588 118.713,13.2254 117.5,10.5 Z"/></g>
<g><path style="opacity:1" fill="#fefbf9" d="M 95.5,21.5 C 101.509,21.3338 107.509,21.5005 113.5,22C 115.77,25.2705 117.604,28.7705 119,32.5C 119.667,54.8333 119.667,77.1667 119,99.5C 118.097,103.805 116.263,107.639 113.5,111C 107.472,111.83 101.472,111.664 95.5,110.5C 99.5431,107.083 102.043,102.75 103,97.5C 103.667,76.5 103.667,55.5 103,34.5C 101.475,29.5056 98.9753,25.1723 95.5,21.5 Z"/></g>
<g><path style="opacity:1" fill="#fefcfa" d="M 76.5,33.5 C 80.8839,33.1744 85.2172,33.5078 89.5,34.5C 90.919,36.3359 92.0857,38.3359 93,40.5C 93.6667,57.5 93.6667,74.5 93,91.5C 92.4837,94.0336 91.317,96.2002 89.5,98C 85.1667,98.6667 80.8333,98.6667 76.5,98C 79.5153,95.1366 81.3487,91.6366 82,87.5C 82.6667,72.8333 82.6667,58.1667 82,43.5C 80.396,39.9518 78.5626,36.6184 76.5,33.5 Z"/></g>
<g><path style="opacity:1" fill="#fef5f0" d="M 113.5,133.5 C 117.182,133.335 120.848,133.501 124.5,134C 130.534,135.182 131.034,137.682 126,141.5C 112.075,137.088 106.742,142.088 110,156.5C 113.655,161.275 118.488,162.775 124.5,161C 127.4,159.164 129.067,160.164 129.5,164C 122.841,169.49 115.841,169.823 108.5,165C 100.068,156.553 99.4017,147.553 106.5,138C 108.898,136.476 111.231,134.976 113.5,133.5 Z"/></g>
<g><path style="opacity:1" fill="#fef6f2" d="M 144.5,133.5 C 162.657,133.163 169.491,141.829 165,159.5C 158.133,168.674 149.633,170.507 139.5,165C 132.557,158.818 130.724,151.318 134,142.5C 136.505,138.189 140.005,135.189 144.5,133.5 Z"/></g>
<g><path style="opacity:1" fill="#fefbfa" d="M 36.5,154.5 C 36.5,147.833 36.5,141.167 36.5,134.5C 38.1667,134.5 39.8333,134.5 41.5,134.5C 41.8203,145.415 41.487,156.248 40.5,167C 39.5,167.667 38.5,167.667 37.5,167C 31.2914,160.295 25.2914,153.462 19.5,146.5C 19.2172,145.711 18.7172,145.044 18,144.5C 17.5003,152.159 17.3336,159.826 17.5,167.5C 15.8333,167.5 14.1667,167.5 12.5,167.5C 12.1793,156.252 12.5126,145.085 13.5,134C 14.5,133.333 15.5,133.333 16.5,134C 23.1181,141.407 29.6181,148.907 36,156.5C 36.4643,155.906 36.631,155.239 36.5,154.5 Z"/></g>
<g><path style="opacity:1" fill="#fefaf8" d="M 67.5,139.5 C 63.5,139.5 59.5,139.5 55.5,139.5C 55.5,142.167 55.5,144.833 55.5,147.5C 59.1667,147.5 62.8333,147.5 66.5,147.5C 66.5,149.167 66.5,150.833 66.5,152.5C 62.8333,152.5 59.1667,152.5 55.5,152.5C 54.5206,155.625 54.1872,158.958 54.5,162.5C 59.5,162.5 64.5,162.5 69.5,162.5C 69.5,163.5 69.5,164.5 69.5,165.5C 63.2504,167.459 56.5837,168.126 49.5,167.5C 49.5,156.5 49.5,145.5 49.5,134.5C 55.5,134.5 61.5,134.5 67.5,134.5C 67.5,136.167 67.5,137.833 67.5,139.5 Z"/></g>
<g><path style="opacity:1" fill="#fefbf9" d="M 71.5,134.5 C 80.8333,134.5 90.1667,134.5 99.5,134.5C 99.5,136.167 99.5,137.833 99.5,139.5C 95.8333,139.5 92.1667,139.5 88.5,139.5C 88.5,148.833 88.5,158.167 88.5,167.5C 86.5,167.5 84.5,167.5 82.5,167.5C 82.5,158.167 82.5,148.833 82.5,139.5C 78.8333,139.5 75.1667,139.5 71.5,139.5C 71.5,137.833 71.5,136.167 71.5,134.5 Z"/></g>
<g><path style="opacity:1" fill="#fef6f1" d="M 175.5,134.5 C 177.5,134.5 179.5,134.5 181.5,134.5C 184.451,142.403 187.951,150.07 192,157.5C 195.333,150.167 198.667,142.833 202,135.5C 204,134.167 206,134.167 208,135.5C 209.661,146.119 210.827,156.785 211.5,167.5C 209.5,167.5 207.5,167.5 205.5,167.5C 204.558,159.855 203.725,152.189 203,144.5C 200.109,151.95 196.942,159.283 193.5,166.5C 191.833,167.833 190.167,167.833 188.5,166.5C 185.058,159.283 181.891,151.95 179,144.5C 178.412,152.203 177.579,159.87 176.5,167.5C 174.396,167.799 172.396,167.466 170.5,166.5C 172.167,155.829 173.834,145.163 175.5,134.5 Z"/></g>
<g><path style="opacity:1" fill="#f3ae8d" d="M 41.5,134.5 C 39.8333,134.5 38.1667,134.5 36.5,134.5C 36.5,141.167 36.5,147.833 36.5,154.5C 35.5088,147.687 35.1755,140.687 35.5,133.5C 37.7354,133.205 39.7354,133.539 41.5,134.5 Z"/></g>
<g><path style="opacity:1" fill="#f3ae8d" d="M 67.5,139.5 C 67.5,137.833 67.5,136.167 67.5,134.5C 61.5,134.5 55.5,134.5 49.5,134.5C 49.5,145.5 49.5,156.5 49.5,167.5C 48.5052,156.346 48.1719,145.012 48.5,133.5C 55.1667,133.5 61.8333,133.5 68.5,133.5C 68.7947,135.735 68.4614,137.735 67.5,139.5 Z"/></g>
<g><path style="opacity:1" fill="#ea610a" d="M 150.5,136.5 C 152.288,135.378 154.288,135.211 156.5,136C 157.126,136.75 157.626,137.584 158,138.5C 158.667,146.5 158.667,154.5 158,162.5C 156.62,165.481 154.454,166.147 151.5,164.5C 151.808,163.692 152.308,163.025 153,162.5C 153.667,154.833 153.667,147.167 153,139.5C 152.623,138.058 151.79,137.058 150.5,136.5 Z"/></g>
<g><path style="opacity:1" fill="#ec691f" d="M 144.5,139.5 C 147.308,137.833 149.475,138.5 151,141.5C 151.667,147.5 151.667,153.5 151,159.5C 150.051,162.2 148.217,163.033 145.5,162C 146.126,161.25 146.626,160.416 147,159.5C 147.667,153.833 147.667,148.167 147,142.5C 146.623,141.058 145.79,140.058 144.5,139.5 Z"/></g>
<g><path style="opacity:1" fill="#eb651b" d="M 140.5,143.5 C 141.542,142.209 142.708,142.209 144,143.5C 144.667,148.167 144.667,152.833 144,157.5C 142.933,159.283 141.433,159.783 139.5,159C 140,158.5 140.5,158 141,157.5C 141.815,152.648 141.648,147.981 140.5,143.5 Z"/></g>
<g><path style="opacity:1" fill="#f29e72" d="M 19.5,146.5 C 18.8333,153.5 18.1667,160.5 17.5,167.5C 17.3336,159.826 17.5003,152.159 18,144.5C 18.7172,145.044 19.2172,145.711 19.5,146.5 Z"/></g>
<g><path style="opacity:1" fill="#f4ae8c" d="M 55.5,152.5 C 55.5,155.5 55.5,158.5 55.5,161.5C 60.5,161.5 65.5,161.5 70.5,161.5C 70.7678,163.099 70.4345,164.432 69.5,165.5C 69.5,164.5 69.5,163.5 69.5,162.5C 64.5,162.5 59.5,162.5 54.5,162.5C 54.1872,158.958 54.5206,155.625 55.5,152.5 Z"/></g>
<g><path style="opacity:1" fill="#120701" d="M 45.5,178.5 C 51.4556,177.875 56.789,179.375 61.5,183C 60.9747,183.692 60.3081,184.192 59.5,184.5C 48.5745,178.53 40.7411,181.197 36,192.5C 36.116,207.661 43.616,213.327 58.5,209.5C 58.5,205.833 58.5,202.167 58.5,198.5C 55.7531,198.813 53.0865,198.48 50.5,197.5C 54.1073,196.511 57.774,196.177 61.5,196.5C 61.8266,201.214 61.4933,205.88 60.5,210.5C 45.3163,216.727 35.983,211.894 32.5,196C 33.2684,187.413 37.6018,181.579 45.5,178.5 Z"/></g>
<g><path style="opacity:1" fill="#0e0501" d="M 79.5,198.5 C 77.3926,197.532 75.0593,197.198 72.5,197.5C 72.5,202.5 72.5,207.5 72.5,212.5C 70.523,201.884 69.8564,190.884 70.5,179.5C 75.5988,179.175 80.5988,179.675 85.5,181C 88.3181,184.338 89.1515,188.171 88,192.5C 86.9596,195.04 85.1263,196.707 82.5,197.5C 85.6382,202.471 88.9715,207.304 92.5,212C 91.0563,212.781 89.723,212.614 88.5,211.5C 85.7368,206.963 82.7368,202.63 79.5,198.5 Z"/></g>
<g><path style="opacity:1" fill="#140802" d="M 108.5,178.5 C 123.827,177.992 130.66,185.325 129,200.5C 125.725,210.392 118.891,214.558 108.5,213C 97.6048,207.666 94.1048,199.166 98,187.5C 100.84,183.673 104.34,180.673 108.5,178.5 Z"/></g>
<g><path style="opacity:1" fill="#120601" d="M 136.5,179.5 C 137.5,179.5 138.5,179.5 139.5,179.5C 139.334,187.84 139.5,196.173 140,204.5C 141.935,208.802 145.268,210.802 150,210.5C 154.2,210.902 157.2,209.235 159,205.5C 160.079,196.888 160.912,188.221 161.5,179.5C 162.92,189.224 162.754,198.891 161,208.5C 152.927,215.444 145.261,215.111 138,207.5C 136.583,198.248 136.083,188.915 136.5,179.5 Z"/></g>
<g><path style="opacity:1" fill="#080201" d="M 172.5,179.5 C 177.599,179.175 182.599,179.675 187.5,181C 192.659,186.091 192.659,191.258 187.5,196.5C 183.675,198.145 179.675,198.812 175.5,198.5C 174.834,203.017 174.167,207.683 173.5,212.5C 172.501,201.52 172.168,190.52 172.5,179.5 Z"/></g>
<g><path style="opacity:1" fill="#e66000" d="M 108.5,181.5 C 121.929,181.433 127.762,188.099 126,201.5C 121.871,209.976 115.371,212.476 106.5,209C 99.203,202.662 97.703,195.162 102,186.5C 103.965,184.45 106.132,182.783 108.5,181.5 Z"/></g>
<g><path style="opacity:1" fill="#973f01" d="M 182.5,182.5 C 180.167,182.5 177.833,182.5 175.5,182.5C 175.5,186.833 175.5,191.167 175.5,195.5C 177.833,195.5 180.167,195.5 182.5,195.5C 180.052,196.473 177.385,196.806 174.5,196.5C 174.5,191.5 174.5,186.5 174.5,181.5C 177.385,181.194 180.052,181.527 182.5,182.5 Z"/></g>
<g><path style="opacity:1" fill="#da5b00" d="M 72.5,181.5 C 76.2733,181.263 79.9399,181.763 83.5,183C 87.601,187.294 87.2676,191.294 82.5,195C 79.1832,195.498 75.8499,195.665 72.5,195.5C 72.5,190.833 72.5,186.167 72.5,181.5 Z"/></g>
<g><path style="opacity:1" fill="#e56000" d="M 182.5,182.5 C 186.345,182.848 188.345,185.015 188.5,189C 187.975,192.562 185.975,194.728 182.5,195.5C 180.167,195.5 177.833,195.5 175.5,195.5C 175.5,191.167 175.5,186.833 175.5,182.5C 177.833,182.5 180.167,182.5 182.5,182.5 Z"/></g>
<g><path style="opacity:1" fill="#682c01" d="M 79.5,198.5 C 77.5,198.5 75.5,198.5 73.5,198.5C 73.8195,203.363 73.4861,208.03 72.5,212.5C 72.5,207.5 72.5,202.5 72.5,197.5C 75.0593,197.198 77.3926,197.532 79.5,198.5 Z"/></g>
<g><path style="opacity:1" fill="#843703" d="M 172.5,179.5 C 172.168,190.52 172.501,201.52 173.5,212.5C 174.167,207.683 174.834,203.017 175.5,198.5C 175.5,203.5 175.5,208.5 175.5,213.5C 174.167,213.5 172.833,213.5 171.5,213.5C 171.172,201.988 171.505,190.654 172.5,179.5 Z"/></g>
<g><path style="opacity:1" fill="#fef6f3" d="M -0.5,215.5 C 0.741084,219.742 3.40775,222.742 7.5,224.5C 4.83333,224.5 2.16667,224.5 -0.5,224.5C -0.5,221.5 -0.5,218.5 -0.5,215.5 Z"/></g>
<g><path style="opacity:1" fill="#fef4f0" d="M 224.5,215.5 C 224.5,218.5 224.5,221.5 224.5,224.5C 221.5,224.5 218.5,224.5 215.5,224.5C 220.167,223.167 223.167,220.167 224.5,215.5 Z"/></g>
</svg>
