<?xml version="1.0" encoding="UTF-8"?>
<!DOCTYPE svg PUBLIC "-//W3C//DTD SVG 1.1//EN" "http://www.w3.org/Graphics/SVG/1.1/DTD/svg11.dtd">
<svg xmlns="http://www.w3.org/2000/svg" version="1.1" width="749px" height="789px" style="shape-rendering:geometricPrecision; text-rendering:geometricPrecision; image-rendering:optimizeQuality; fill-rule:evenodd; clip-rule:evenodd" xmlns:xlink="http://www.w3.org/1999/xlink">
<g><path style="opacity:0.977" fill="#20e8e3" d="M 569.5,5.5 C 599.502,5.33335 629.502,5.50002 659.5,6C 696.323,11.1489 721.49,30.9822 735,65.5C 738.129,75.6045 739.962,85.9378 740.5,96.5C 740.604,139.795 740.438,183.128 740,226.5C 727.5,244.333 715,262.167 702.5,280C 689.838,280.5 677.171,280.667 664.5,280.5C 672.167,259.671 680.334,239.004 689,218.5C 690.139,175.504 690.472,132.504 690,89.5C 686.043,69.2094 673.876,57.376 653.5,54C 465.168,52.4392 276.834,51.4392 88.5,51C 67.9731,55.5269 55.4731,68.0269 51,88.5C 49.4111,287.333 47.9111,486.167 46.5,685C 43.1626,709.633 51.4959,728.966 71.5,743C 76.8157,745.994 82.4824,747.994 88.5,749C 278.83,750.931 469.163,751.931 659.5,752C 681.925,746.575 696.092,732.741 702,710.5C 703.671,588.173 704.838,465.84 705.5,343.5C 712.167,343.5 718.833,343.5 725.5,343.5C 726.005,464.504 726.505,585.504 727,706.5C 721.296,747.87 697.796,771.704 656.5,778C 465.835,779.652 275.168,780.652 84.5,781C 43.6278,773.128 20.1278,748.628 14,707.5C 12.0335,498.837 11.0335,290.17 11,81.5C 20.1503,38.9938 46.317,14.8271 89.5,9C 249.667,8.07406 409.667,6.9074 569.5,5.5 Z"/></g>
<g><path style="opacity:0.989" fill="#141a6c" d="M 309.5,124.5 C 352.52,124.069 395.52,124.569 438.5,126C 478.541,129.224 513.875,143.557 544.5,169C 569.318,193.926 581.985,224.093 582.5,259.5C 550.5,259.5 518.5,259.5 486.5,259.5C 485.988,239.996 476.655,226.496 458.5,219C 449.172,215.251 439.505,212.918 429.5,212C 389.833,211.333 350.167,211.333 310.5,212C 288.865,214.228 271.699,224.062 259,241.5C 255.372,247.417 252.872,253.75 251.5,260.5C 220.167,260.5 188.833,260.5 157.5,260.5C 162.438,210.788 186.438,173.288 229.5,148C 254.648,134.552 281.314,126.718 309.5,124.5 Z"/></g>
<g><path style="opacity:0.989" fill="#141a6c" d="M 156.5,302.5 C 187.833,302.5 219.167,302.5 250.5,302.5C 255.19,325.027 268.523,339.86 290.5,347C 307.073,350.225 323.74,352.891 340.5,355C 386.206,360.375 431.872,366.041 477.5,372C 551.691,384.687 591.358,428.521 596.5,503.5C 564.833,503.5 533.167,503.5 501.5,503.5C 497.014,479.335 483.014,463.835 459.5,457C 451.917,455.202 444.25,453.869 436.5,453C 383.086,447.324 329.752,440.991 276.5,434C 203.801,419.808 163.801,375.975 156.5,302.5 Z"/></g>
<g><path style="opacity:0.988" fill="#141a6c" d="M 501.5,544.5 C 533.167,544.5 564.833,544.5 596.5,544.5C 593.605,583.79 577.272,616.29 547.5,642C 512.032,670.601 471.365,684.268 425.5,683C 389.833,683.667 354.167,683.667 318.5,683C 279.289,682.698 242.622,673.031 208.5,654C 169.613,628.535 149.613,592.369 148.5,545.5C 181.167,545.5 213.833,545.5 246.5,545.5C 247.586,566.825 258.253,580.992 278.5,588C 287.563,591.266 296.896,593.266 306.5,594C 350.167,594.667 393.833,594.667 437.5,594C 470.425,592.219 491.758,575.719 501.5,544.5 Z"/></g>
</svg>
