<?xml version="1.0" standalone="no"?>
<!DOCTYPE svg PUBLIC "-//W3C//DTD SVG 20010904//EN"
 "http://www.w3.org/TR/2001/REC-SVG-20010904/DTD/svg10.dtd">
<svg version="1.0" xmlns="http://www.w3.org/2000/svg"
 width="225.000000pt" height="225.000000pt" viewBox="0 0 225.000000 225.000000"
 preserveAspectRatio="xMidYMid meet">

<g transform="translate(0.000000,225.000000) scale(0.100000,-0.100000)"
fill="#000000" stroke="none">
<path d="M70 2232 c-74 -37 -70 33 -70 -1107 0 -951 1 -1022 18 -1055 37 -74
-33 -70 1107 -70 1140 0 1070 -4 1107 70 17 33 18 104 18 1055 0 951 -1 1022
-18 1055 -37 74 33 70 -1107 70 -951 0 -1022 -1 -1055 -18z m1380 -167 l35
-70 0 -410 c0 -438 -1 -447 -52 -527 l-23 -38 -115 0 c-63 0 -115 2 -115 5 0
2 17 28 39 56 21 28 43 68 50 89 14 48 15 769 1 820 -5 19 -28 59 -50 88 -22
29 -40 55 -40 58 0 2 53 3 118 2 l117 -3 35 -70z m-275 -100 l30 -60 0 -330 0
-330 -30 -55 -30 -55 -98 -3 -97 -3 34 46 c20 25 40 62 46 83 13 49 13 595 0
644 -6 21 -26 58 -46 83 l-34 46 97 -3 98 -3 30 -60z m-250 -107 c24 -51 25
-61 25 -273 0 -304 -11 -335 -120 -335 -33 0 -60 3 -60 7 0 4 12 25 28 47 l27
39 0 237 0 237 -27 39 c-16 22 -28 43 -28 47 0 4 29 7 65 7 l66 0 24 -52z
m348 -960 c30 -12 33 -24 13 -51 -11 -14 -19 -16 -40 -7 -98 37 -182 -48 -142
-143 25 -60 84 -83 150 -58 20 8 27 6 40 -14 18 -27 11 -36 -47 -55 -149 -48
-277 108 -204 250 44 88 130 117 230 78z m324 -10 c84 -51 105 -182 41 -263
-27 -34 -92 -64 -138 -65 -55 0 -121 38 -147 85 -31 55 -31 140 0 185 58 86
159 110 244 58z m-1335 -84 l93 -106 3 106 3 106 35 0 34 0 -2 -167 c-3 -163
-4 -168 -25 -171 -16 -2 -43 21 -115 102 l-93 104 -3 -104 -3 -104 -34 0 -35
0 0 164 c0 166 2 173 37 175 6 1 53 -47 105 -105z m428 76 l0 -30 -65 0 -65 0
0 -40 0 -40 60 0 c57 0 60 -1 60 -25 0 -24 -3 -25 -60 -25 l-60 0 0 -45 0 -45
76 0 75 0 -3 -27 -3 -28 -107 -3 -108 -3 0 171 0 170 100 0 100 0 0 -30z m310
0 c0 -30 -1 -30 -55 -30 l-55 0 0 -140 0 -140 -36 0 -35 0 3 140 3 140 -52 0
c-52 0 -53 0 -53 30 l0 30 140 0 140 0 0 -30z m856 -67 c25 -54 50 -109 55
-123 9 -22 15 -13 63 95 50 113 55 120 82 120 l29 0 17 -130 c9 -71 18 -147
21 -167 5 -37 5 -38 -28 -38 -39 0 -40 3 -53 139 l-7 73 -49 -106 c-42 -91
-52 -106 -72 -106 -13 0 -24 1 -24 3 0 6 -90 202 -91 197 0 -3 -6 -48 -12
-100 l-12 -95 -33 -3 c-32 -3 -34 -2 -28 25 3 15 13 87 21 158 9 72 18 136 20
143 3 6 16 12 30 12 23 0 31 -11 71 -97z"/>
<path d="M1528 868 c15 -15 16 -231 2 -259 -9 -16 -7 -19 15 -19 36 0 45 31
45 151 0 114 -9 139 -47 139 -21 0 -24 -3 -15 -12z"/>
<path d="M1478 756 c3 -57 -1 -102 -7 -115 -10 -18 -9 -21 8 -21 27 0 33 25
29 135 -2 70 -6 90 -18 93 -13 2 -14 -12 -12 -92z"/>
<path d="M1418 740 c2 -44 8 -80 13 -80 5 0 9 36 9 80 0 57 -4 80 -12 80 -10
0 -12 -21 -10 -80z"/>
</g>
</svg>
