<?xml version="1.0" encoding="UTF-8"?>
<svg id="Calque_1" data-name="Calque 1" xmlns="http://www.w3.org/2000/svg" viewBox="0 0 725.67 725.67">
  <defs>
    <style>
      .cls-1 {
        fill: #272351;
      }

      .cls-1, .cls-2, .cls-3 {
        stroke-width: 0px;
      }

      .cls-2 {
        fill: #fff;
      }

      .cls-3 {
        fill: #fbc15a;
      }
    </style>
  </defs>
  <rect class="cls-1" x="25.04" y="25.04" width="675.59" height="675.59" rx="103.88" ry="103.88"/>
  <g>
    <path class="cls-3" d="M515.08,306.43l-170.17,302.93c-1.83,3.25.52,7.27,4.25,7.27h94.51v12.26h-114.75c-4.95,0-8.05-5.34-5.6-9.64l175.73-312.81"/>
    <path class="cls-2" d="M392.56,445.38l94.16-166.62-101.55-179.21h14.4l88.82,158.57c2.67,4.34,7.1,4.25,9.83.12l89.17-158.68h14.39l-194.2,345.8"/>
    <path class="cls-3" d="M490.1,374.98c10.04-2.4,20.64-3.68,31.69-3.68,75.98,0,130.83,60.97,130.83,130.83s-54.84,131.13-130.83,131.13c-61.49,0-109.05-39.61-125.19-91.72l8.63-15.54c10.79,54.54,58.03,95.01,116.56,95.01,66.49,0,118.57-52.7,118.57-118.88s-52.09-118.57-118.57-118.57c-14.22,0-27.77,2.38-40.3,6.75l8.62-15.33Z"/>
    <path class="cls-2" d="M241.17,264.38l-7.61,18.04c-7.11-31.98-38.97-41.71-73.64-50.64-36.71-9.51-70.17-24.59-70.17-72.14,0-38.69,28.86-67.23,72.14-67.23,47.87,0,75.08,32.15,75.43,80.34h-13.14c-.32-40.98-20.99-67.23-62.29-67.23-36.74,0-59.03,21.97-59.03,54.12,0,38.02,23.6,50.17,60.34,59.67,30.04,7.76,63.7,16.85,77.96,45.07M197.98,366.81c-10.86,4.06-23.11,6.28-36.4,6.28-54.44,0-88.22-38.37-88.54-90.83h13.11c.32,44.59,28.19,77.72,75.43,77.72,17.12,0,32.18-4.2,44.14-11.54l-7.75,18.37Z"/>
    <path class="cls-2" d="M414.95,319.32h-168.87l-20.67,49.18h-14.42l110.29-262.33c1.92-4.56,6.38-7.52,11.32-7.52h0c4.59,0,8.72,2.79,10.44,7.04l94.96,235.4-8.32,15.01-14.72-36.78ZM406.57,298.43l-69.1-172.21c-1.89-4.71-8.53-4.75-10.49-.08l-72.03,172.21c-1.56,3.73,1.18,7.86,5.23,7.86h141.14c4.01,0,6.76-4.06,5.26-7.78Z"/>
  </g>
</svg>