<?xml version="1.0" standalone="no"?>
<!DOCTYPE svg PUBLIC "-//W3C//DTD SVG 20010904//EN"
 "http://www.w3.org/TR/2001/REC-SVG-20010904/DTD/svg10.dtd">
<svg version="1.0" xmlns="http://www.w3.org/2000/svg"
 width="1754.000000pt" height="1241.000000pt" viewBox="0 0 1754.000000 1241.000000"
 preserveAspectRatio="xMidYMid meet">

<g transform="translate(0.000000,1241.000000) scale(0.100000,-0.100000)"
fill="#000000" stroke="none">
<path d="M7963 8890 c-617 -42 -1123 -345 -1372 -821 -77 -147 -122 -291 -147
-471 l-6 -48 468 0 469 0 19 61 c40 129 173 277 308 343 145 71 184 76 638 82
223 3 520 1 660 -4 229 -9 264 -13 345 -37 227 -67 356 -191 387 -373 l12 -72
468 0 468 0 0 64 c0 155 -67 395 -152 544 -105 183 -223 310 -399 427 -269
181 -592 277 -1025 305 -179 11 -970 11 -1141 0z"/>
<path d="M6444 7038 c14 -164 65 -346 137 -491 66 -130 135 -224 243 -333 185
-185 401 -304 682 -375 151 -38 362 -66 1024 -139 880 -97 938 -106 1072 -177
126 -66 237 -211 270 -352 l11 -51 469 0 468 0 0 39 c0 21 -9 91 -20 154 -97
569 -432 923 -1015 1072 -162 42 -220 50 -852 125 -1069 126 -1192 148 -1330
238 -109 70 -212 219 -229 328 l-6 44 -466 0 -465 0 7 -82z"/>
<path d="M6360 4626 c0 -146 50 -343 128 -501 226 -457 703 -731 1382 -794
151 -14 1353 -14 1491 -1 426 43 791 212 1067 492 224 227 358 503 396 816 l7
52 -474 0 -474 0 -27 -73 c-34 -95 -77 -157 -162 -237 -75 -70 -175 -126 -279
-155 -91 -26 -814 -42 -1255 -28 -290 10 -346 14 -415 33 -245 66 -388 200
-418 390 l-11 70 -478 0 -478 0 0 -64z"/>
</g>
</svg>
