<svg width="512" height="457" viewBox="0 0 512 457" fill="none" xmlns="http://www.w3.org/2000/svg">
<path d="M356.8 178.1H390.4C399.311 178.1 407.858 181.64 414.159 187.941C420.46 194.242 424 202.789 424 211.7V396.5L356.8 329.3H256C247.089 329.3 238.542 325.76 232.241 319.459C225.94 313.158 222.4 304.611 222.4 295.7V278.9M289.6 178.1C289.6 187.011 286.06 195.558 279.759 201.859C273.458 208.16 264.911 211.7 256 211.7H155.2L88 278.9V94.1C88 75.62 103.12 60.5 121.6 60.5H256C264.911 60.5 273.458 64.04 279.759 70.3412C286.06 76.6424 289.6 85.1887 289.6 94.1V178.1Z" stroke="white" stroke-width="34" stroke-linecap="round" stroke-linejoin="round"/>
</svg>
