<?xml version="1.0" encoding="UTF-8" standalone="no"?>
<svg
   width="256"
   height="260"
   viewBox="0 0 256 260"
   version="1.1"
   id="svg14"
   xmlns="http://www.w3.org/2000/svg"
   xmlns:svg="http://www.w3.org/2000/svg"
   xmlns:rdf="http://www.w3.org/1999/02/22-rdf-syntax-ns#"
   xmlns:cc="http://creativecommons.org/ns#"
   xmlns:dc="http://purl.org/dc/elements/1.1/"
   xmlns:inkscape="http://www.inkscape.org/namespaces/inkscape"
   xmlns:sodipodi="http://sodipodi.sourceforge.net/DTD/sodipodi-0.dtd">
  <sodipodi:namedview
     id="namedview16"
     pagecolor="#ffffff"
     bordercolor="#666666"
     borderopacity="1.0"
     inkscape:pageshadow="2"
     inkscape:pageopacity="0.0"
     inkscape:pagecheckerboard="0"
     showgrid="false"
     inkscape:zoom="4.2868349"
     inkscape:cx="-28.809134"
     inkscape:cy="15.162702"
     inkscape:window-width="1920"
     inkscape:window-height="1043"
     inkscape:window-x="0"
     inkscape:window-y="0"
     inkscape:window-maximized="1"
     inkscape:current-layer="svg14" />
  <metadata id="metadata833">
    <rdf:RDF>
      <cc:Work rdf:about="">
        <dc:title>Icon</dc:title>
      </cc:Work>
    </rdf:RDF>
  </metadata>
  <g id="Icons" stroke="none" stroke-width="1" fill="none" fill-rule="evenodd">
    <path
       d="M211.996 96.401V46.001M211.996 46.001H161.596M211.996 46.001L161.596 96.401M211.996 171.329V196.529C212.005 198.868 211.526 201.184 210.589 203.327C209.652 205.471 208.277 207.395 206.553 208.976C204.829 210.558 202.794 211.762 200.578 212.512C198.362 213.261 196.014 213.539 193.684 213.329C167.836 210.52 143.007 201.688 121.192 187.541C100.896 174.644 83.6886 157.437 70.7917 137.141C56.5955 115.227 47.761 90.2772 45.0037 64.3128C44.7938 61.9899 45.0699 59.6488 45.8143 57.4385C46.5588 55.2281 47.7553 53.197 49.3278 51.4744C50.9002 49.7519 52.8141 48.3756 54.9476 47.4332C57.0811 46.4908 59.3874 46.003 61.7197 46.0008H86.9197C90.9963 45.9607 94.9484 47.4043 98.0393 50.0625C101.13 52.7207 103.149 56.4122 103.72 60.4488C104.783 68.5134 106.756 76.4317 109.6 84.0528C110.73 87.0594 110.974 90.3269 110.305 93.4682C109.635 96.6095 108.078 99.493 105.82 101.777L95.1517 112.445C107.11 133.475 124.522 150.887 145.552 162.845L156.22 152.177C158.504 149.918 161.387 148.362 164.528 147.692C167.67 147.022 170.937 147.267 173.944 148.397C181.565 151.241 189.483 153.213 197.548 154.277C201.628 154.852 205.355 156.908 208.019 160.052C210.683 163.196 212.098 167.209 211.996 171.329Z"
       stroke="#1E1E1E"
       stroke-width="16.8"
       stroke-linecap="round"
       stroke-linejoin="round"/>
  </g>
</svg>
