<?xml version="1.0" encoding="UTF-8"?>
<svg id="Calque_1" data-name="Calque 1" xmlns="http://www.w3.org/2000/svg" version="1.1" viewBox="0 0 512 457">
  <defs>
    <style>
      .cls-1 {
        fill: #20e8e4;
        stroke-width: 0px;
      }
    </style>
  </defs>
  <ellipse class="cls-1" cx="228.91" cy="86.3" rx="86.22" ry="86.3"/>
  <path class="cls-1" d="M88.66,245.85c2.29-2.97,4.69-5.85,7.37-8.63-2.68,2.69-5.08,5.56-7.37,8.63ZM84.73,251.41c.86-1.24,1.72-2.49,2.58-3.74-.95,1.25-1.72,2.5-2.58,3.74Z"/>
  <path class="cls-1" d="M384.93,310.82c.8.33,1.58.68,2.34,1.06v43.86c0,6.32-5.46,11.41-12.16,11.41h-43.34c-.35-.7-.67-1.41-.97-2.14-6.44-15.55-2.91-33.29,8.99-45.2,7.82-7.84,18.23-12.15,29.31-12.15,5.46,0,10.78,1.06,15.83,3.16Z"/>
  <path class="cls-1" d="M263.86,321.72c-4.88.52-8.55,4.6-8.55,9.51v35.92H82.72c-3.36,0-6.42-1.25-8.63-3.36-.57-.48-1.05-1.05-1.53-1.73-1.34-1.82-2.11-4.02-2.11-6.42v-56.76c0-13.43,3.16-26.28,8.72-37.78.67-1.35,1.34-2.69,2.01-4.03.77-1.34,1.44-2.59,2.3-3.93.38-.67.77-1.25,1.15-1.92.86-1.25,1.63-2.49,2.59-3.74.48-.57.86-1.25,1.34-1.82,2.3-2.97,4.69-5.85,7.38-8.63,5.74-5.95,12.35-11.22,19.64-15.63,1.34-.77,2.68-1.53,4.02-2.3,1.34-.77,2.78-1.44,4.12-2.11,13.32-6.43,28.45-10.07,44.55-10.07h121.09c16,0,31.14,3.64,44.55,10.07,1.44.67,2.78,1.34,4.12,2.11,1.34.77,2.68,1.53,4.02,2.3,6.6,3.93,12.61,8.63,17.97,13.91h-8.9c-4.87.05-8.92,3.73-9.44,8.56l-2.79,24.63c-1.87.68-3.7,1.42-5.49,2.22l-19.48-15.57c-1.68-1.35-3.8-2.09-5.97-2.09-2.56,0-5.06,1.04-6.85,2.86l-22.9,22.96-.28-.07-2.31,2.28c-3.4,3.36-3.6,8.89-.46,12.87l15.54,19.49c-.8,1.81-1.54,3.64-2.22,5.47l-24.61,2.8Z"/>
  <path class="cls-1" d="M473.78,327.68l-28.39-3.22c-1.31-4.07-2.9-8.03-4.79-11.86l17.83-22.37c1.15-1.44,1.03-3.5-.28-4.8l-25.24-25.3c-.7-.71-1.63-1.07-2.56-1.07-.79,0-1.57.25-2.23.77l-22.39,17.91h-.02c-3.82-1.91-7.76-3.5-11.82-4.8l-3.23-28.43c-.19-1.81-1.73-3.18-3.54-3.2h-35.93c-1.82.02-3.36,1.4-3.55,3.22l-3.22,28.41c-4.06,1.3-8.04,2.89-11.84,4.8l-22.41-17.91c-.65-.52-1.43-.77-2.22-.77-.94,0-1.87.36-2.58,1.07l-25.23,25.3-.31-.07c-1.32,1.3-1.12,3.43.03,4.87l17.83,22.37h.02c-1.89,3.83-3.5,7.79-4.79,11.86l-28.41,3.22c-1.82.19-3.2,1.73-3.2,3.55v35.81s0,.07.01.11c.05,1.77,1.41,3.25,3.19,3.44l28.41,3.22c1.29,4.07,2.9,8.03,4.79,11.86l-17.85,22.42c-1.15,1.43-1.02,3.51.3,4.8l25.22,25.25c.7.71,1.63,1.07,2.57,1.07.79,0,1.57-.25,2.22-.77l22.41-17.86v-.02c3.82,1.9,7.78,3.51,11.84,4.8l3.22,28.43c.19,1.82,1.73,3.21,3.55,3.21h35.78c1.82,0,3.36-1.39,3.54-3.21l3.23-28.43c4.06-1.29,8.02-2.9,11.84-4.8l22.41,17.86v.02c.65.52,1.43.77,2.22.77.93,0,1.87-.36,2.57-1.07l25.23-25.25h.01c1.29-1.31,1.42-3.37.28-4.8l-17.84-22.42h-.01c1.89-3.83,3.5-7.79,4.79-11.86l28.41-3.22c.93-.05,1.77-.47,2.37-1.11.6-.64.97-1.5.98-2.44v-35.81c-.02-1.82-1.4-3.36-3.22-3.55ZM369.08,396.62c-19.19,0-36.48-11.57-43.83-29.31-.02-.05-.04-.11-.06-.16-7.26-17.7-3.17-38.05,10.35-51.58,9.08-9.08,21.21-13.91,33.56-13.91,6.11,0,12.27,1.18,18.13,3.61.01.01.03.01.04.02,17.71,7.37,29.25,24.65,29.25,43.85,0,26.21-21.25,47.48-47.44,47.48Z"/>
</svg>